<svg width="34" height="34" viewBox="0 0 34 34" fill="none" xmlns="http://www.w3.org/2000/svg">
<path d="M17 0C7.59333 0 0 7.59333 0 17C0 26.4067 7.59333 34 17 34C26.4067 34 34 26.4067 34 17C34 7.59333 26.4067 0 17 0ZM17 31.7333C8.84 31.7333 2.26667 25.16 2.26667 17C2.26667 8.84 8.84 2.26667 17 2.26667C25.16 2.26667 31.7333 8.84 31.7333 17C31.7333 25.16 25.16 31.7333 17 31.7333Z" fill="white"/>
<path d="M18.1329 16.4333V5.66666C18.1329 4.98666 17.6795 4.53333 16.9995 4.53333C16.3195 4.53333 15.8662 4.98666 15.8662 5.66666V17C15.8662 17.34 15.9795 17.68 16.3195 17.9067L24.2529 24.7067C24.7062 25.16 25.4995 25.0467 25.8395 24.5933C26.1795 24.14 26.1795 23.3467 25.7262 23.0067L18.1329 16.4333Z" fill="white"/>
</svg>
