<svg width="66" height="74" viewBox="-2 0 70 74" fill="none" xmlns="http://www.w3.org/2000/svg">
<path d="M9.6683 24.6047C14.7345 26.4505 21.437 27.4585 28.5192 27.4585C35.6145 27.4585 42.3039 26.4374 47.3701 24.6047C54.6748 21.9473 56.2195 18.5174 56.2195 16.1087V11.7102C56.2195 9.30144 54.6879 5.87162 47.3701 3.21417C42.3039 1.36835 35.6014 0.360352 28.5192 0.360352C21.4239 0.360352 14.7345 1.38144 9.6683 3.21417C2.36357 5.87162 0.818848 9.30144 0.818848 11.7102V16.1087C0.818848 18.5174 2.35048 21.9473 9.6683 24.6047ZM12.5483 22.916C11.4748 22.5625 10.4668 22.1829 9.49812 21.764C9.49812 20.3763 9.49812 18.9887 9.49812 17.588C10.4668 18.0069 11.4748 18.3865 12.5483 18.74C12.5483 20.1276 12.5483 21.5153 12.5483 22.916ZM21.1097 24.7225C19.853 24.5654 18.6356 24.3691 17.4443 24.1465C17.4443 22.7589 17.4443 21.3713 17.4443 19.9705C18.6487 20.1931 19.8661 20.3894 21.1097 20.5465C21.1097 21.9342 21.1097 23.3218 21.1097 24.7225ZM30.4697 25.1283C29.1737 25.1676 27.8908 25.1676 26.5948 25.1283C26.5948 23.7407 26.5948 22.3531 26.5948 20.9523C27.8908 20.9916 29.1737 20.9916 30.4697 20.9523C30.4697 22.34 30.4697 23.7276 30.4697 25.1283ZM39.6203 24.1465C38.4159 24.3691 37.1985 24.5654 35.9548 24.7225C35.9548 23.3349 35.9548 21.9473 35.9548 20.5465C37.2116 20.3894 38.429 20.1931 39.6203 19.9705C39.6203 21.3582 39.6203 22.7458 39.6203 24.1465ZM47.5534 21.764C46.5846 22.1829 45.5766 22.5625 44.5032 22.916C44.5032 21.5283 44.5032 20.1407 44.5032 18.74C45.5766 18.3865 46.5846 18.0069 47.5534 17.588C47.5534 18.9756 47.5534 20.3633 47.5534 21.764ZM51.2581 15.5458C52.0174 14.996 52.685 14.42 53.2741 13.8309C53.2741 15.2185 53.2741 16.6062 53.2741 18.0069C52.685 18.6091 52.0174 19.172 51.2581 19.7218C51.2581 18.3342 51.2581 16.9465 51.2581 15.5458ZM13.229 5.83235C17.2872 3.98653 22.7199 2.96544 28.5323 2.96544C34.3446 2.96544 39.7774 3.98653 43.8356 5.83235C47.501 7.50799 49.1374 9.51089 49.1374 10.7545C49.1374 11.9982 47.501 14.0142 43.8356 15.6767C39.7774 17.5225 34.3446 18.5436 28.5323 18.5436C22.7199 18.5436 17.2872 17.5225 13.229 15.6767C9.56357 14.0011 7.92721 11.9982 7.92721 10.7545C7.92721 9.51089 9.56357 7.4949 13.229 5.83235ZM3.79048 13.8309C4.37957 14.4331 5.04721 14.996 5.80648 15.5458C5.80648 16.9334 5.80648 18.3211 5.80648 19.7218C5.04721 19.172 4.37957 18.596 3.79048 18.0069C3.79048 16.6193 3.79048 15.2316 3.79048 13.8309Z" fill="black"/>
<path d="M15.5885 12.9143C15.942 13.4117 16.5049 13.8699 17.2903 14.315C18.0758 14.747 19.0445 15.1136 20.2096 15.3885C21.3747 15.6765 22.6576 15.8074 24.0453 15.8074C26.4278 15.8074 28.3914 15.4146 29.9362 14.6292C31.0882 14.0401 32.1878 12.8619 33.222 11.0947H38.7725C38.4191 11.3957 38.0656 11.6183 37.7122 11.7492C37.3587 11.8801 36.7304 12.0241 35.8271 12.1943L36.9529 15.4277C38.9951 15.2183 40.6053 14.7732 41.7834 14.0794C42.9616 13.3986 43.6424 12.4037 43.8125 11.0947H45.7107V9.82483H43.8125C43.6424 8.39793 42.8045 7.32447 41.2729 6.60447C39.7413 5.88448 37.8431 5.51793 35.5653 5.51793C33.9027 5.51793 32.4889 5.7012 31.3369 6.05466C30.1849 6.40811 29.334 6.84011 28.8103 7.32447C28.2867 7.80884 27.6714 8.64665 26.9514 9.81174H20.1703C20.6023 9.40593 21.0998 9.11793 21.6627 8.93465C22.2256 8.75138 23.142 8.62047 24.4118 8.51574L23.5085 5.00739C22.2256 5.11211 21.1391 5.2692 20.2358 5.47866C19.3325 5.68811 18.4947 5.9892 17.7093 6.36884C16.9238 6.74847 16.3216 7.20666 15.8765 7.74338C15.4314 8.28011 15.1303 8.96084 14.9602 9.81174H11.334V11.0816H14.9602C15.0256 11.7885 15.2351 12.4037 15.5885 12.8881V12.9143ZM34.9762 9.06556C35.3951 8.92156 35.8794 8.84302 36.4554 8.84302C36.9922 8.84302 37.4634 8.92156 37.8562 9.06556C38.2489 9.20956 38.5893 9.47138 38.8642 9.83793H33.9289C34.2169 9.47138 34.5573 9.20956 34.9762 9.06556ZM26.1267 11.1077C25.6947 11.6707 25.2234 12.0503 24.7129 12.2466C24.2023 12.443 23.6525 12.5346 23.0503 12.5346C22.3565 12.5346 21.7282 12.4168 21.1783 12.1943C20.6154 11.9717 20.2227 11.6052 19.974 11.1077H26.1267Z" fill="black"/>
<path d="M59.4532 19.8785C59.0081 20.9388 58.3798 21.9599 57.555 22.8894C57.3063 23.1643 57.0445 23.4392 56.7696 23.7141C57.6859 24.6043 58.1179 25.4552 58.1179 26.0967C58.1179 27.3403 56.4816 29.3563 52.8161 31.0188C48.7579 32.8647 43.3252 33.8858 37.5129 33.8858C31.9492 33.8858 26.7259 32.9563 22.7201 31.2414C19.4867 30.9927 16.3841 30.5345 13.5434 29.893C13.923 30.2334 14.342 30.5607 14.787 30.8748C14.787 32.2625 14.787 33.6501 14.787 35.0508C14.0278 34.501 13.3601 33.925 12.771 33.3359C12.771 32.1316 12.771 30.9272 12.771 29.7098C11.75 29.461 10.755 29.1861 9.8125 28.885V31.4378C9.8125 33.8465 11.3441 37.2763 18.662 39.9337C23.7281 41.7796 30.4307 42.7876 37.5129 42.7876C44.6081 42.7876 51.2976 41.7665 56.3638 39.9337C63.6685 37.2763 65.2132 33.8465 65.2132 31.4378V27.0392C65.2132 25.0232 64.1267 22.2741 59.4532 19.8785ZM21.542 38.2581C20.4685 37.9047 19.4605 37.525 18.4918 37.1061C18.4918 35.7185 18.4918 34.3308 18.4918 32.9301C19.4605 33.349 20.4685 33.7287 21.542 34.0821C21.542 35.4697 21.542 36.8574 21.542 38.2581ZM30.1034 40.0647C28.8467 39.9076 27.6292 39.7112 26.4379 39.4887C26.4379 38.101 26.4379 36.7134 26.4379 35.3127C27.6423 35.5352 28.8598 35.7316 30.1034 35.8887C30.1034 37.2763 30.1034 38.6639 30.1034 40.0647ZM39.4634 40.4705C38.1674 40.5097 36.8845 40.5097 35.5885 40.4705C35.5885 39.0828 35.5885 37.6952 35.5885 36.2945C36.8845 36.3337 38.1674 36.3337 39.4634 36.2945C39.4634 37.6821 39.4634 39.0697 39.4634 40.4705ZM48.6139 39.4887C47.4096 39.7112 46.1921 39.9076 44.9485 40.0647C44.9485 38.677 44.9485 37.2894 44.9485 35.8887C46.2052 35.7316 47.4227 35.5352 48.6139 35.3127C48.6139 36.7003 48.6139 38.0879 48.6139 39.4887ZM56.547 37.1061C55.5783 37.525 54.5703 37.9047 53.4968 38.2581C53.4968 36.8705 53.4968 35.4828 53.4968 34.0821C54.5703 33.7287 55.5783 33.349 56.547 32.9301C56.547 34.3178 56.547 35.7054 56.547 37.1061ZM62.2678 33.3359C61.6787 33.9381 61.011 34.501 60.2518 35.0508C60.2518 33.6632 60.2518 32.2756 60.2518 30.8748C61.011 30.325 61.6787 29.749 62.2678 29.1599C62.2678 30.5476 62.2678 31.9352 62.2678 33.3359Z" fill="black"/>
<path d="M57.7383 43.7038C57.2932 43.8608 56.8481 44.0179 56.3768 44.1619C55.5259 44.895 54.3478 45.6543 52.8161 46.3481C48.7579 48.1939 43.3252 49.215 37.5129 49.215C31.7005 49.215 26.2678 48.1939 22.2096 46.3481C20.678 45.6543 19.4998 44.895 18.6489 44.1619C18.1907 44.0179 17.7325 43.8608 17.2874 43.7038C14.4598 42.6696 12.1296 41.4259 10.3361 39.999C9.94341 40.8499 9.8125 41.6616 9.8125 42.3816V46.7801C9.8125 49.1888 11.3441 52.6187 18.662 55.2761C23.7281 57.1219 30.4307 58.1299 37.5129 58.1299C44.6081 58.1299 51.2976 57.1089 56.3638 55.2761C63.6685 52.6187 65.2132 49.1888 65.2132 46.7801V42.3816C65.2132 41.6616 65.0823 40.8499 64.6896 39.999C62.8961 41.439 60.5659 42.6827 57.7383 43.7038ZM14.787 50.3932C14.0278 49.8434 13.3601 49.2674 12.771 48.6783C12.771 47.2907 12.771 45.903 12.771 44.5023C13.3601 45.1045 14.0278 45.6674 14.787 46.2172C14.787 47.6048 14.787 48.9925 14.787 50.3932ZM21.542 53.5874C20.4685 53.2339 19.4605 52.8543 18.4918 52.4354C18.4918 51.0478 18.4918 49.6601 18.4918 48.2594C19.4605 48.6783 20.4685 49.0579 21.542 49.4114C21.542 50.799 21.542 52.1867 21.542 53.5874ZM30.1034 55.3939C28.8467 55.2369 27.6292 55.0405 26.4379 54.8179C26.4379 53.4303 26.4379 52.0427 26.4379 50.6419C27.6423 50.8645 28.8598 51.0608 30.1034 51.2179C30.1034 52.6056 30.1034 53.9932 30.1034 55.3939ZM39.4634 55.7998C38.1674 55.839 36.8845 55.839 35.5885 55.7998C35.5885 54.4121 35.5885 53.0245 35.5885 51.6238C36.8845 51.663 38.1674 51.663 39.4634 51.6238C39.4634 53.0114 39.4634 54.399 39.4634 55.7998ZM48.6139 54.8179C47.4096 55.0405 46.1921 55.2369 44.9485 55.3939C44.9485 54.0063 44.9485 52.6187 44.9485 51.2179C46.2052 51.0608 47.4227 50.8645 48.6139 50.6419C48.6139 52.0296 48.6139 53.4172 48.6139 54.8179ZM56.547 52.4354C55.5783 52.8543 54.5703 53.2339 53.4968 53.5874C53.4968 52.1998 53.4968 50.8121 53.4968 49.4114C54.5703 49.0579 55.5783 48.6783 56.547 48.2594C56.547 49.647 56.547 51.0347 56.547 52.4354ZM62.2678 48.6652C61.6787 49.2674 61.011 49.8303 60.2518 50.3801C60.2518 48.9925 60.2518 47.6048 60.2518 46.2041C61.011 45.6543 61.6787 45.0783 62.2678 44.4892C62.2678 45.8768 62.2678 47.2645 62.2678 48.6652Z" fill="black"/>
<path d="M53.261 64.0081C52.6719 64.6103 52.0043 65.1732 51.245 65.723C51.245 64.3354 51.245 62.9477 51.245 61.547C51.6901 61.2197 52.0959 60.8925 52.4886 60.5652C49.6479 61.2067 46.5454 61.6648 43.3119 61.9136C39.3192 63.6154 34.0959 64.5579 28.5192 64.5579C22.7068 64.5579 17.2741 63.5368 13.2159 61.691C9.55048 60.0154 7.91412 58.0125 7.91412 56.7688C7.91412 56.1274 8.34612 55.2896 9.26248 54.3863C8.98757 54.1114 8.72575 53.8496 8.47703 53.5616C7.66539 52.619 7.02394 51.611 6.57884 50.5507C1.90539 52.9463 0.818848 55.6954 0.818848 57.7114V62.1099C0.818848 64.5187 2.35048 67.9485 9.6683 70.6059C14.7345 72.4517 21.437 73.4597 28.5192 73.4597C35.6145 73.4597 42.3039 72.4387 47.3701 70.6059C54.6748 67.9485 56.2195 64.5187 56.2195 62.1099V59.5572C55.277 59.8583 54.2821 60.1332 53.261 60.3819C53.261 61.5863 53.261 62.7907 53.261 64.0081ZM5.79339 65.723C5.03412 65.1732 4.36648 64.5972 3.77739 64.0081C3.77739 62.6205 3.77739 61.2328 3.77739 59.8321C4.36648 60.4343 5.03412 60.9972 5.79339 61.547C5.79339 62.9347 5.79339 64.3223 5.79339 65.723ZM12.5483 68.9172C11.4748 68.5637 10.4668 68.1841 9.49812 67.7652C9.49812 66.3776 9.49812 64.9899 9.49812 63.5892C10.4668 64.0081 11.4748 64.3877 12.5483 64.7412C12.5483 66.1288 12.5483 67.5165 12.5483 68.9172ZM21.1097 70.7237C19.853 70.5667 18.6356 70.3703 17.4443 70.1477C17.4443 68.7601 17.4443 67.3725 17.4443 65.9717C18.6487 66.1943 19.8661 66.3907 21.1097 66.5477C21.1097 67.9354 21.1097 69.323 21.1097 70.7237ZM30.4697 71.1296C29.1737 71.1688 27.8908 71.1688 26.5948 71.1296C26.5948 69.7419 26.5948 68.3543 26.5948 66.9536C27.8908 66.9928 29.1737 66.9928 30.4697 66.9536C30.4697 68.3412 30.4697 69.7288 30.4697 71.1296ZM39.6203 70.1477C38.4159 70.3703 37.1985 70.5667 35.9548 70.7237C35.9548 69.3361 35.9548 67.9485 35.9548 66.5477C37.2116 66.3907 38.429 66.1943 39.6203 65.9717C39.6203 67.3594 39.6203 68.747 39.6203 70.1477ZM47.5534 67.7652C46.5846 68.1841 45.5766 68.5637 44.5032 68.9172C44.5032 67.5296 44.5032 66.1419 44.5032 64.7412C45.5766 64.3877 46.5846 64.0081 47.5534 63.5892C47.5534 64.9768 47.5534 66.3645 47.5534 67.7652Z" fill="black"/>
</svg>
