<svg width="90" height="90" viewBox="0 0 90 90" fill="none" xmlns="http://www.w3.org/2000/svg">
<path d="M70.585 5.87184e-06C65.4445 -0.00399572 60.5125 2.03743 56.8716 5.67616C53.2306 9.3149 51.1782 14.2536 51.165 19.4082V40.9271C49.165 41.0625 47.12 41.1478 45 41.1478C42.88 41.1478 40.845 41.233 38.835 41.3533V19.4082C38.7532 14.2983 36.6715 9.42545 33.0389 5.84086C29.4063 2.25628 24.514 0.247283 19.4175 0.247283C14.321 0.247283 9.42869 2.25628 5.7961 5.84086C2.16351 9.42545 0.0817752 14.2983 0 19.4082V70.8391C0.0817752 75.949 2.16351 80.8218 5.7961 84.4064C9.42869 87.991 14.321 90 19.4175 90C24.514 90 29.4063 87.991 33.0389 84.4064C36.6715 80.8218 38.7532 75.949 38.835 70.8391V49.3201C40.835 49.1848 42.88 49.0995 45 49.0995C47.12 49.0995 49.155 49.0143 51.165 48.894V70.8391C51.2468 75.949 53.3285 80.8218 56.9611 84.4064C60.5937 87.991 65.486 90 70.5825 90C75.679 90 80.5713 87.991 84.2039 84.4064C87.8365 80.8218 89.9182 75.949 90 70.8391V19.4082C89.9868 14.2545 87.9351 9.31653 84.2952 5.67794C80.6553 2.03934 75.7246 -0.00266711 70.585 5.87184e-06ZM19.415 7.95179C22.4487 7.95045 25.3591 9.15592 27.5075 11.3037C29.656 13.4515 30.8671 16.3661 30.875 19.4082V42.1956C25.1939 43.0211 19.6461 44.5939 14.375 46.8734C12.0912 47.8785 9.94125 49.1653 7.975 50.7039V19.4082C7.98293 16.3696 9.19124 13.458 11.3354 11.3108C13.4795 9.16357 16.3847 7.95576 19.415 7.95179ZM30.875 70.8391C30.875 73.8868 29.6676 76.8097 27.5184 78.9648C25.3693 81.1199 22.4544 82.3306 19.415 82.3306C16.3756 82.3306 13.4607 81.1199 11.3116 78.9648C9.16239 76.8097 7.955 73.8868 7.955 70.8391V65.68C7.955 61.1225 11.555 56.8056 17.59 54.1183C21.8424 52.2787 26.3042 50.9703 30.875 50.2226V70.8391ZM70.585 82.2955C67.5513 82.2968 64.6409 81.0914 62.4924 78.9436C60.344 76.7958 59.1329 73.8811 59.125 70.8391V48.0517C64.8061 47.2262 70.3539 45.6534 75.625 43.3738C77.9088 42.3687 80.0588 41.082 82.025 39.5434V70.8391C82.0171 73.8777 80.8088 76.7893 78.6646 78.9365C76.5205 81.0837 73.6153 82.2915 70.585 82.2955ZM72.41 36.0989C68.1576 37.9385 63.6958 39.2469 59.125 39.9946V19.4082C59.125 16.3605 60.3324 13.4375 62.4816 11.2825C64.6307 9.1274 67.5456 7.9167 70.585 7.9167C73.6244 7.9167 76.5393 9.1274 78.6884 11.2825C80.8376 13.4375 82.045 16.3605 82.045 19.4082V24.5673C82.045 29.1047 78.445 33.4216 72.41 36.0989Z" fill="white"/>
</svg>
