<svg width="163" height="220" viewBox="0 0 163 220" fill="none" xmlns="http://www.w3.org/2000/svg">
<mask id="mask0" mask-type="alpha" maskUnits="userSpaceOnUse" x="0" y="0" width="163" height="220">
<path fill-rule="evenodd" clip-rule="evenodd" d="M0 0H163V220H0V0Z" fill="white"/>
</mask>
<g mask="url(#mask0)">
<path fill-rule="evenodd" clip-rule="evenodd" d="M74.0365 210.039L9.06506 163.613L0 176.36L61.0576 220L74.0365 210.039ZM160.476 143.923C160.162 144.276 132.655 176.188 132.655 176.188H80.8972L70.8817 198.849L19.0971 161.846L43.1999 124.512C43.202 89.4151 43.2332 40.582 43.2332 40.582C42.8568 35.0502 46.9079 30.2597 52.4501 29.8776C55.2679 29.6845 57.9007 30.4507 59.8722 32.0829L56.6114 83.009C56.5365 84.1449 57.4869 85.1437 58.5413 85.1956C59.5956 85.2496 60.6604 84.3671 60.7332 83.2707L64.3746 26.3683C64.6491 22.234 64.8134 19.7401 64.8134 19.7401C64.7739 14.1959 69.2284 9.67117 74.7831 9.62964C80.3357 9.58604 84.9774 13.1638 85.0252 19.5761C85.0252 19.5761 84.6717 32.5085 84.2142 49.7227L78.229 79.3004C78.0023 80.4155 78.726 81.5036 79.8449 81.7279C80.7516 81.9064 82.0222 81.3748 82.278 80.1165L96.7917 8.7679C97.4946 3.26724 102.517 -0.619968 108.03 0.0818899C113.537 0.783747 117.657 4.95129 116.843 11.3116C116.843 11.3116 110.738 48.6658 105.561 80.6709H134.98C134.98 80.6709 160.445 110.342 160.854 110.851C164.117 114.914 163.468 119.94 160.193 123.621C156.502 127.768 150.159 128.138 146.004 124.452L130.527 113.278C126.894 110.581 122.39 108.099 117.27 108.099C106.439 108.099 97.6568 116.866 97.6568 127.681C97.6568 138.497 106.439 147.266 117.27 147.266C122.695 147.266 128.063 144.031 131.326 141.323C139.197 135.185 146.004 129.882 146.004 129.882C150.159 126.198 156.502 126.566 160.193 130.71C163.589 134.531 164.161 139.791 160.476 143.923Z" fill="#1B295E"/>
</g>
</svg>
