<svg width="32" height="30" viewBox="0 0 32 30" fill="none" xmlns="http://www.w3.org/2000/svg">
<path opacity="0.5" fill-rule="evenodd" clip-rule="evenodd" d="M27.2784 20.3168L31.2165 24.2549C31.6327 24.6711 31.6327 25.3435 31.2005 25.7597C30.6882 26.272 29.8558 26.272 29.3435 25.7597L5.95514 2.3713C5.53892 1.97109 5.53892 1.29874 5.95514 0.882516C6.46742 0.370244 7.29986 0.370244 7.81213 0.882516L11.1419 4.21228C11.2379 4.16425 11.334 4.11623 11.4461 4.08421L24.4289 0.114109C25.9978 -0.334129 27.2784 0.578354 27.2784 2.14719V20.3168ZM24.9732 8.63062C24.9732 7.44599 23.7085 7.87822 23.7085 7.87822L16.953 9.99134L24.9572 17.9956L24.9732 18.0116V8.63062ZM8.61256 21.2453V21.4374C8.61256 21.4374 7.66806 20.7971 5.57095 21.1013C2.49732 21.5335 0 23.9027 0 26.368C0 28.8494 2.49732 30.3702 5.57095 29.9219C8.64458 29.4897 10.9018 27.2005 10.9018 24.7192V13.033C10.9018 12.3126 11.4781 11.8484 11.8783 11.6402L8.61256 8.37451V21.2453ZM16.1365 22.7501C16.1365 25.2314 18.6339 26.8003 21.7075 26.4161C23.0362 26.256 24.2689 25.7277 25.2294 24.9753L18.842 18.5879C17.2091 19.5644 16.1365 21.1173 16.1365 22.7501Z" fill="#748695"/>
</svg>
