<svg width="28" height="30" viewBox="0 0 28 30" fill="none" xmlns="http://www.w3.org/2000/svg">
<path d="M24.4165 0.114125L11.4477 4.08481C9.87867 4.53311 8.59781 6.16621 8.59781 7.75128V21.2484V21.4405C8.59781 21.4405 7.65317 20.8001 5.55575 21.1043C2.49769 21.5366 0 23.8902 0 26.3719C0 28.8535 2.49769 30.3586 5.57176 29.9263C8.64584 29.494 10.9034 27.2044 10.9034 24.7227C10.9034 24.7227 10.9034 14.1396 10.9034 13.0349C10.9034 11.9301 12.2163 11.4658 12.2163 11.4658L23.68 7.86336C23.68 7.86336 24.9448 7.43107 24.9448 8.61587C24.9448 9.80067 24.9448 17.9982 24.9448 17.9982C24.9448 17.9982 23.7761 17.3257 21.6786 17.5819C18.6046 17.9502 16.1069 20.2717 16.1069 22.7374C16.1069 25.2191 18.6046 26.7881 21.6786 26.4039C24.7527 26.0356 27.2504 23.7141 27.2504 21.2484V2.1475C27.2664 0.578439 26.0016 -0.334178 24.4165 0.114125Z" fill="white"/>
</svg>
