<svg width="78" height="47" viewBox="0 -2 78 48" fill="none" xmlns="http://www.w3.org/2000/svg">
  <path d="M57.7147 0.974609L1.41064 13.843L14.1088 32.1703L77.2332 14.6415L57.7147 0.974609ZM40.7096 21.7761C39.8717 21.7106 39.0339 21.5928 38.2092 21.4226C36.9525 21.1739 35.7219 20.8204 34.5568 20.3754C33.4048 19.9303 32.3314 19.4066 31.3626 18.8044C28.6136 17.4299 26.0346 13.8953 27.4877 11.4343L14.9597 15.8459L11.6739 23.5172L5.11537 14.4583L45.3699 5.12443L38.0128 7.71643C41.1546 7.87352 44.7023 8.9208 47.2157 10.5179C47.2157 10.5179 47.2288 10.5179 47.2288 10.531C47.8572 10.9106 48.4463 11.3295 48.9699 11.7746C49.5459 12.259 50.0303 12.7564 50.423 13.267C51.575 14.707 51.9154 16.1208 51.5619 17.3644C51.5096 17.587 51.431 17.8095 51.3263 18.0321L63.2783 13.1492L63.0296 6.80007L73.7903 14.4975L31.5983 26.083L41.927 21.8677C41.5212 21.8546 41.1154 21.8154 40.6965 21.763L40.7096 21.7761Z" fill="white"/>
  <path d="M44.7527 20.6242L46.7818 20.0744L45.3287 18.726C45.3287 18.726 49.4131 17.8097 49.8189 15.6235C50.2116 13.4373 46.664 12.4031 45.6429 12.2722C44.6218 12.1413 41.9381 11.9318 38.5607 12.4162L36.6625 10.6489C36.6625 10.6489 37.8014 10.518 39.2807 11.1857L43.6138 9.6802C43.6138 9.6802 42.0691 8.59365 38.9011 8.63292C35.7331 8.6722 34.9869 9.07802 34.9869 9.07802L34.3716 8.50201L32.5127 8.93402L33.1149 9.51002C33.1149 9.51002 28.7949 10.4002 28.6509 12.4555C28.5069 14.5108 32.3949 15.1784 33.0101 15.2308C33.6254 15.2831 38.8487 14.9689 38.8487 14.9689L41.336 17.3384C41.336 17.3384 39.5163 17.5871 37.7491 16.3566L32.4865 18.1108C32.4865 18.1108 34.3192 19.59 37.3432 19.7471C40.3672 19.9042 42.488 19.4199 43.3258 19.2366L44.7527 20.598V20.6242ZM34.0836 12.246C33.3898 11.6438 34.4632 11.2118 34.7251 11.0678L36.3745 12.6388C36.3745 12.6388 34.7643 12.8482 34.0705 12.2329L34.0836 12.246ZM41.0872 14.7857C43.6531 14.55 44.2814 15.1784 44.2814 15.1784C45.512 16.1209 43.3781 16.9195 43.3781 16.9195L41.0741 14.7857H41.0872Z" fill="white"/>
  <path d="M15.2363 35.1812V36.726L77.4443 19.459L77.0385 18.019L15.2363 35.1812Z" fill="white"/>
  <path d="M0.80957 18.3591L12.9972 35.9663V33.3482L2.02702 17.5212L0.80957 18.3591Z" fill="white"/>
  <path d="M0.80957 23.4259L12.9972 41.0201V38.415L2.02702 22.575L0.80957 23.4259Z" fill="white"/>
  <path d="M15.2363 40.2469V41.7917L77.4443 24.5247L77.0385 23.0847L15.2363 40.2469Z" fill="white"/>
  <path d="M15.2363 45.3134V46.8581L77.4443 29.5781L77.0385 28.1512L15.2363 45.3134Z" fill="white"/>
  <path d="M0.80957 28.4915L12.9972 46.0857V43.4675L2.02702 27.6406L0.80957 28.4915Z" fill="white"/>
</svg>
